PathFileType	4	(X/Y/Z)	walk-thru1-2-TP.trc
DataRate	CameraRate	NumFrames	NumMarkers	Units	OrigDataRate	OrigDataStartFrame	OrigNumFrames
120.00	120.00	       4	60	mm	120.00	252	       502
Frame#	Time	Top.Head			Front.Head			Rear.Head			Jaw			C7			R.Clavicle			L.Clavicle			R.Shoulder			L.Shoulder			R.Scapula			L.Scapula			R.Scap.Inf			R.Biceps.Lateral			R.Elbow			R.Elbow.Medial			R.Forearm			R.Ulna			R.Radius			R.Wrist			R.Thumb.M1			R.Thumb.M2			R.Thumb.M3			R.Finger3.M1			R.Finger3.M2			R.Finger3.M3			L.Biceps.Lateral			L.Elbow			L.Elbow.Medial			L.Forearm			L.Ulna			L.Radius			L.Wrist			L.Thumb.M1			L.Thumb.M2			L.Thumb.M3			L.Finger3.M1			L.Finger3.M2			L.Finger3.M3			V.Sacral			R.ASIS			L.ASIS			R.Thigh			R.Thigh.Front			R.Knee			R.Knee.Medial			R.Shank			R.Ankle			R.Ankle.Medial			R.Heel			R.Toe			R.MedFoot			L.Thigh			L.Knee			L.Knee.Medial			L.Shank			L.Ankle			L.Ankle.Medial			L.Heel			L.Toe			L.MedFoot			V_mid_ASIS			V_R_Knee_JC			V_L_Knee_JC			V_R_Elbow_JC			V_L_Elbow_JC			V_R_Ankle_JC			V_L_Ankle_JC			V_R_Wrist_JC			V_L_Wrist_JC			V_R_ScaTrpz_1stMC_JC			V_R_1stMC_1stPP_JC			V_R_1stPP_1stDP_JC			V_R_LunCap_3rdMC_JC			V_R_3rdMC_3rdPP_JC			V_R_3rdPP_3rdMP_JC			V_R_3rdMP_3rdDP_JC			V_L_ScaTrpz_1stMC_JC			V_L_1stMC_1stPP_JC			V_L_1stPP_1stDP_JC			V_L_LunCap_3rdMC_JC			V_L_3rdMC_3rdPP_JC			V_L_3rdPP_3rdMP_JC			V_L_3rdMP_3rdPP_JC			V_ROOT_JC			V_R_Hip_JC			V_L_Hip_JC			V_R_GlenHum_JC			V_L_GlenHum_JC			V_ForeHead_Ctr			V_Vertex			V_Sagit_Lambdoid_Suture			V_R_FrontoTemp			V_L_FrontoTemporal			V_R_ParietalOccip			V_L_ParietalOcciptal			V_R_Temporal			V_L_Temporal			V_mid_FrontRearHead			V_mid_RLGlenHumCtrs			V_C7_vert			V_C1_vert			V_Mid_Hip			
		X1	Y1	Z1	X2	Y2	Z2	X3	Y3	Z3	X4	Y4	Z4	X5	Y5	Z5	X6	Y6	Z6	X7	Y7	Z7	X8	Y8	Z8	X9	Y9	Z9	X10	Y10	Z10	X11	Y11	Z11	X12	Y12	Z12	X13	Y13	Z13	X14	Y14	Z14	X15	Y15	Z15	X16	Y16	Z16	X17	Y17	Z17	X18	Y18	Z18	X19	Y19	Z19	X20	Y20	Z20	X21	Y21	Z21	X22	Y22	Z22	X23	Y23	Z23	X24	Y24	Z24	X25	Y25	Z25	X26	Y26	Z26	X27	Y27	Z27	X28	Y28	Z28	X29	Y29	Z29	X30	Y30	Z30	X31	Y31	Z31	X32	Y32	Z32	X33	Y33	Z33	X34	Y34	Z34	X35	Y35	Z35	X36	Y36	Z36	X37	Y37	Z37	X38	Y38	Z38	X39	Y39	Z39	X40	Y40	Z40	X41	Y41	Z41	X42	Y42	Z42	X43	Y43	Z43	X44	Y44	Z44	X45	Y45	Z45	X46	Y46	Z46	X47	Y47	Z47	X48	Y48	Z48	X49	Y49	Z49	X50	Y50	Z50	X51	Y51	Z51	X52	Y52	Z52	X53	Y53	Z53	X54	Y54	Z54	X55	Y55	Z55	X56	Y56	Z56	X57	Y57	Z57	X58	Y58	Z58	X59	Y59	Z59	X60	Y60	Z60	

252	2.092	645.96088	9.33409	1767.74414	738.13757	-3.40141	1641.15088	509.40283	9.34740	1700.72217	640.15839	-4.04502	1470.83301	410.49313	-14.44129	1575.08582	520.53290	-122.41044	1493.29602	501.50958	122.61289	1482.01660	483.55365	-231.24689	1485.50830	441.09238	219.88637	1483.45837	355.67969	-117.72672	1485.77551	332.06168	73.95364	1482.21436	325.31070	-123.52956	1396.99878	460.50363	-271.72836	1346.17822	413.31802	-315.11292	1162.58582	402.34711	-218.61931	1149.31714	514.08734	-295.17044	1106.80530	473.00763	-316.95978	967.50354	584.75787	-285.52994	948.00964	598.35748	-332.60385	922.10498	607.39630	-279.77850	902.54651	605.99017	-254.84602	853.85229	603.48389	-258.46487	802.32007	623.17255	-348.60532	843.65100	584.63403	-319.84595	778.38788	553.66541	-273.18832	809.35229	365.97635	236.44954	1344.25623	285.53168	232.01164	1181.36853	283.85110	135.01524	1163.37097	358.83087	237.73418	1090.26196	282.12546	248.13934	992.90259	371.16998	235.39044	925.30701	342.96057	274.62421	893.73260	388.53796	234.24335	867.38434	401.04367	208.34503	822.59924	404.72052	210.49550	771.93439	353.54453	281.93597	792.56934	349.34735	246.78793	735.21881	342.36545	188.19229	738.15985	288.11438	-18.66616	1124.34900	491.43454	-198.94513	1060.06689	467.04147	155.69812	1070.66895	437.64841	-183.86023	679.40082	486.13870	-88.50877	572.11261	437.79376	-152.06367	517.22083	415.31705	-44.40946	519.03278	409.58902	-106.98862	301.54581	286.85605	-141.79480	87.33887	296.34421	-38.50904	109.42081	219.38852	-97.30729	53.52045	453.93549	-92.56636	41.45900	389.35809	-59.67021	79.84946	510.93869	170.97621	688.35968	556.69434	145.51627	553.99176	556.33398	33.77515	530.09692	604.60071	110.49843	353.78802	554.63965	125.38641	92.98885	606.10718	39.48623	130.51149	531.33624	51.41373	53.94000	735.52747	129.61330	86.47385	678.22827	85.48339	117.22703																																																																																																																															
253	2.100	650.77954	10.69181	1766.56421	744.06799	-1.44131	1639.99011	514.58411	9.88891	1700.47754	645.26807	-1.33616	1470.35254	417.01108	-13.02902	1573.10059	525.83246	-120.84206	1492.75037	507.47775	124.16427	1480.73438	489.15610	-229.80655	1485.36841	447.35208	220.83223	1481.95142	360.76965	-116.43732	1485.06531	338.45499	75.27248	1480.77026	330.30634	-123.02378	1395.45276	465.28687	-271.78912	1346.55066	419.94254	-314.27432	1162.23499	404.95517	-219.74107	1147.94165	518.68042	-294.73782	1106.83557	478.30936	-316.63477	966.53339	589.78302	-285.92651	947.96289	603.38806	-331.91431	921.97797	612.07458	-277.88852	903.70715	609.56451	-252.75427	855.79602	605.18744	-251.50801	803.41180	627.59143	-344.43863	841.04352	588.46338	-312.95251	778.14319	554.99884	-269.36679	809.75696	371.47122	237.11748	1343.59448	291.52554	232.28011	1180.01550	288.90930	136.20615	1163.43811	364.53912	240.07866	1088.59790	286.92139	249.69543	992.18982	376.25671	237.86110	925.19257	348.17798	275.15054	893.12860	394.50735	234.91479	866.78888	408.23932	209.53786	821.47656	410.47638	210.68060	768.85352	359.82358	282.36188	791.64240	355.93356	247.70067	733.89264	352.19034	188.46594	738.91602	293.54742	-17.77068	1123.23206	495.61203	-198.40002	1060.24170	473.45282	155.29466	1069.84509	441.15558	-183.44246	678.50824	490.22916	-89.15870	570.72766	441.00320	-152.22894	516.67444	419.00507	-43.54384	518.59247	411.21921	-106.93462	300.78915	286.75784	-142.10045	87.76226	296.69275	-38.56403	109.38903	219.51691	-97.40456	54.20874	453.83432	-92.58462	41.36331	389.35809	-59.67021	79.84946	515.96692	171.75711	686.67859	562.13843	144.73128	553.84827	560.38654	33.38921	529.75244	612.12134	110.52243	354.18832	567.10480	125.45210	92.72047	617.80542	39.92944	130.73991	543.85010	52.39135	52.85860	748.44287	129.93797	88.45325	689.50323	85.77936	117.50922																																																																																																																															
254	2.108	656.29773	12.07018	1765.55969	749.59552	-1.13686	1639.16162	520.69104	11.94934	1699.22314	650.99274	-0.68079	1469.04590	421.60660	-10.60163	1572.36963	531.83539	-119.18187	1491.39978	513.53174	124.61329	1479.58313	494.37399	-229.62848	1485.33264	452.80936	222.56009	1481.55457	366.30997	-115.05139	1484.80017	343.90677	76.43957	1480.05664	335.29257	-120.54886	1395.18091	470.90933	-269.65289	1345.52173	423.86414	-313.59198	1161.79138	410.21286	-217.98390	1148.51184	526.31665	-295.86542	1106.50305	484.26669	-314.25629	965.68616	594.50989	-286.17975	947.96136	609.23553	-328.42474	921.56073	616.09595	-276.39670	904.63287	612.95709	-248.62398	857.99127	608.86194	-247.70338	806.15118	632.95996	-341.60635	839.43469	592.30701	-306.15790	778.07343	560.21875	-260.89673	811.61920	378.32535	238.81725	1342.58740	297.32526	233.18208	1178.89392	295.98480	137.36102	1161.48743	369.74094	241.23679	1087.81262	293.90350	250.67549	990.14185	382.81894	237.64482	923.10858	354.32111	276.67523	892.08527	399.60989	235.92429	865.88507	412.84836	210.95482	820.25714	415.96213	212.17995	768.36053	364.85925	284.02567	789.72278	362.60239	248.58711	733.94550	358.84308	190.41063	738.47455	298.89420	-17.86226	1122.46887	502.29935	-198.81052	1058.99780	478.44333	156.55769	1068.73914	444.63782	-183.43501	678.57349	494.04688	-88.92867	569.23486	443.84595	-152.17201	515.97516	421.97910	-43.31931	517.58002	412.10754	-107.14782	299.96091	287.01819	-142.00302	87.90192	296.84576	-38.48928	109.38979	219.73337	-97.09037	54.42065	453.83432	-92.58462	41.36331	389.56134	-59.81519	79.74355	521.32031	172.83376	685.94281	568.10370	144.52452	553.29675	565.76715	34.43102	530.09546	620.41138	111.25163	354.22971	577.89948	125.20360	91.67448	628.60693	39.40355	131.34309	556.19220	51.48611	52.46025	760.32190	130.02408	90.85783	701.17419	86.58250	118.81535																																																																																																																															
255	2.117	662.10303	12.80693	1764.86304	755.60229	0.73017	1638.15698	525.76099	14.05552	1697.90796	656.79755	0.17352	1468.11169	428.70685	-9.61145	1570.34326	536.43768	-117.94394	1490.90247	518.83893	126.52908	1478.56726	499.62869	-227.78734	1484.98877	459.18561	223.24634	1479.69080	372.37918	-112.47612	1483.18481	348.90869	77.15022	1478.67578	340.86688	-119.76398	1394.79175	475.19971	-268.83994	1345.19934	428.87396	-313.78226	1161.40430	416.06061	-216.67471	1147.85510	527.71771	-295.83105	1107.22156	487.61646	-313.61938	964.91235	599.51672	-285.63947	948.24847	613.25800	-329.35196	920.14526	620.25934	-275.26221	905.28955	616.39392	-245.65231	859.97437	613.03101	-243.20525	807.54327	636.56384	-335.94891	838.04895	595.99225	-299.77890	778.27667	562.31506	-258.02213	811.19983	384.54068	239.68272	1340.99280	302.27222	234.77650	1178.37244	304.14612	138.97682	1159.62024	374.84219	241.61859	1086.86560	299.71933	251.95743	989.74091	388.61288	238.27843	922.33667	360.13638	278.18594	891.00446	405.64023	238.21799	864.56433	419.27930	211.91722	818.92847	423.90970	212.86806	767.95758	370.86740	285.73938	788.97229	367.92963	249.92651	732.38885	365.87323	191.40669	736.83691	304.62723	-16.20220	1121.63647	506.39526	-197.49420	1058.41467	484.30664	157.64043	1067.21362	448.18274	-182.85193	677.26196	497.41061	-89.00211	568.28143	446.79071	-152.60565	515.49060	424.75284	-42.99524	517.24194	414.32495	-107.67216	299.69330	287.34000	-141.76930	87.95555	297.28775	-37.87556	109.29778	219.51109	-97.27367	54.92096	453.40579	-92.33447	40.96902	389.82657	-59.84229	79.74576	526.45703	172.73466	684.30920	574.08881	145.52304	552.78308	571.77808	33.20164	528.16827	627.76147	110.76063	354.47021	588.05115	125.63148	90.61514	638.07477	39.46394	131.22523	566.48907	51.13105	51.56920	770.49872	130.40753	92.67112	710.10040	86.12715	119.32978																																																																																																																															
